<?xml version="1.0" encoding="UTF-8"?>
<svg id="_レイヤー_2" data-name="レイヤー 2" xmlns="http://www.w3.org/2000/svg" viewBox="0 0 58.69 56.22">
  <defs>
    <style>
      .cls-1 {
        fill: none;
      }

      .cls-2 {
        fill: #14389b;
      }

      .cls-3 {
        fill: #090f1e;
      }

      .cls-4 {
        fill: #fff;
      }
    </style>
  </defs>
  <g id="_レイヤー_1-2" data-name="レイヤー 1">
    <g>
      <path class="cls-1" d="M53.1,30.05c0-.55-.35-1.28-.78-1.63l-9.76-7.9-1.55-1.26-10.89-8.81c-.43-.35-1.13-.35-1.55,0l-9.32,7.54-1.55,1.26-11.33,9.17c-.43.35-.78,1.08-.78,1.63v21.6c0,.55.45,1,1,1h45.51c.55,0,1-.45,1-1v-21.6Z"/>
      <rect class="cls-3" x="22.78" y="10.63" width="39.3" height="5.98" rx="2.39" ry="2.39" transform="translate(67.1 50.73) rotate(-141.41)"/>
      <rect class="cls-3" x="-3.39" y="10.63" width="39.3" height="5.98" rx="2.39" ry="2.39" transform="translate(-4.95 13.11) rotate(-38.59)"/>
      <path class="cls-3" d="M40.29,10.89V3.91c0-1.1.9-2,2-2h4.83c1.1,0,2,.9,2,2v11.83c0,1.1-.9,2-2,2"/>
      <path class="cls-2" d="M28.71,10.33l-1.25,1.01,22.61,41.31h2.03c.55,0,1-.45,1-1v-22.12c0-.3-.14-.59-.37-.78L29.97,10.33c-.37-.3-.89-.3-1.26,0Z"/>
      <polygon class="cls-2" points="23.34 31.24 15.92 20.69 27.46 11.34 36.06 22.95 23.34 31.24"/>
      <g>
        <path class="cls-2" d="M41.79,35.34c.25.49.06,1.12-.41,1.4l-9.59,5.62c-.47.28-1.11.13-1.42-.33l-7.32-10.94c-.31-.46-.17-1.06.31-1.34l11.16-6.54c.47-.28,1.07-.1,1.32.39l5.96,11.74Z"/>
        <path class="cls-3" d="M41.79,35.34c.25.49.06,1.12-.41,1.4l-9.59,5.62c-.47.28-1.11.13-1.42-.33l-4.41-6.58s0-.01,0-.01l12.23-7.17s0,0,0,0l3.59,7.07Z"/>
        <rect x="30.77" y="39.79" width="13.86" height="3.46" rx="1.3" ry="1.3" transform="translate(-15.82 24.76) rotate(-30.37)"/>
        <g>
          <path class="cls-4" d="M32.66,39.73l-6.37-11.54c-.04-.08-.11-.12-.16-.1l-.58.34s-.04.11,0,.18l6.95,11.2c.1.17.25.09.15-.09Z"/>
          <path class="cls-4" d="M34.1,34.32l-4.41-8.18c-.03-.06-.09-.08-.13-.05l-.58.34s-.05.09-.02.14l4.99,7.84c.08.12.22.03.15-.09Z"/>
          <path class="cls-4" d="M35.91,27.86l-2.21-4.06c-.03-.05-.09-.07-.14-.04l-.25.15s-.07.09-.03.14l2.46,3.92c.07.11.24.01.18-.1Z"/>
          <path class="cls-4" d="M38.43,35.49l-5.91-10.92c-.05-.09-.16-.13-.24-.09l-.72.42c-.08.05-.1.16-.04.25l6.63,10.5c.13.2.39.05.28-.16Z"/>
        </g>
        <path d="M37.47,41.13c-.89.52-1.19,1.66-.67,2.55l6.81,11.62c.52.89,1.66,1.19,2.55.67s1.19-1.66.67-2.55l-6.81-11.62c-.52-.89-1.66-1.19-2.55-.67ZM45.45,54.74c-.48.28-1.1.12-1.39-.36s-.12-1.1.36-1.39,1.1-.12,1.39.36.12,1.1-.36,1.39Z"/>
      </g>
    </g>
  </g>
</svg>