<?xml version="1.0" encoding="UTF-8"?>
<svg id="_レイヤー_2" data-name="レイヤー 2" xmlns="http://www.w3.org/2000/svg" viewBox="0 0 621.33 392.51">
  <defs>
    <style>
      .cls-1, .cls-2, .cls-3, .cls-4, .cls-5, .cls-6, .cls-7 {
        fill: none;
      }

      .cls-8 {
        fill: #14389b;
      }

      .cls-2 {
        stroke: #4d4d4d;
      }

      .cls-2, .cls-3, .cls-4, .cls-9, .cls-10, .cls-5, .cls-6, .cls-7 {
        stroke-miterlimit: 10;
      }

      .cls-2, .cls-7 {
        stroke-width: 2px;
      }

      .cls-11, .cls-12, .cls-13 {
        fill: #4d4d4d;
      }

      .cls-11, .cls-14, .cls-13, .cls-15, .cls-16, .cls-17 {
        font-size: 12px;
      }

      .cls-11, .cls-14, .cls-15, .cls-16 {
        font-family: NotoSansCJKjp-Medium-83pv-RKSJ-H, 'Noto Sans CJK JP';
        font-weight: 500;
      }

      .cls-18, .cls-14 {
        fill: #14389b;
      }

      .cls-3, .cls-9, .cls-5, .cls-6, .cls-7 {
        stroke: #fff;
      }

      .cls-3, .cls-6 {
        stroke-width: 4px;
      }

      .cls-19 {
        fill: #090f1e;
      }

      .cls-4 {
        stroke-width: 5px;
      }

      .cls-4, .cls-10 {
        stroke: #14389b;
      }

      .cls-20, .cls-10 {
        fill: #e9eefe;
      }

      .cls-21, .cls-15, .cls-9, .cls-16, .cls-17 {
        fill: #fff;
      }

      .cls-13, .cls-17 {
        font-family: ArialMT, Arial;
      }

      .cls-15 {
        glyph-orientation-vertical: 0deg;
        text-orientation: upright;
        writing-mode: tb;
      }

      .cls-22 {
        letter-spacing: -.07em;
      }

      .cls-5 {
        stroke-dasharray: 2 15;
        stroke-width: 6px;
      }

      .cls-6 {
        stroke-dasharray: 11.54 11.54;
      }
    </style>
  </defs>
  <g id="_レイヤー_1-2" data-name="レイヤー 1">
    <g>
      <path class="cls-9" d="M612.47,392.01H8.85c-4.61,0-8.35-3.7-8.35-8.26V8.76C.5,4.2,4.24.5,8.85.5h603.62c4.61,0,8.35,3.7,8.35,8.26v374.99c0,4.56-3.74,8.26-8.35,8.26Z"/>
      <g>
        <polygon class="cls-9" points="609.66 381.9 11.66 381.9 11.66 14.9 348.45 14.9 609.66 14.9 609.66 381.9"/>
        <path class="cls-4" d="M106.51,15.04c-2.9,47.55-12.6,83.31-20.93,107.09-7.47,21.3-18.06,44.99-23.7,57.62-3.82,8.54-12.01,26.56-24.9,51.91-27.21,53.47-7.84,16.1-23.29,41.77"/>
        <g>
          <path class="cls-3" d="M106.51,15.04c-.12,2.02-.26,4.01-.41,5.99"/>
          <path class="cls-6" d="M105.1,32.52c-3.92,38.93-12.24,68.84-19.52,89.6-7.47,21.3-18.06,44.99-23.7,57.62-3.82,8.54-12.01,26.56-24.9,51.91-20.29,39.87-14.68,29.23-16.92,31.89"/>
          <path class="cls-3" d="M16.83,268.3c-.84,1.34-1.87,3.02-3.14,5.12"/>
        </g>
        <path class="cls-10" d="M540.56,72.33c-31.23,0-56.68,24.73-57.85,55.68l-13.9,2.59,14.05,4.28c2.37,29.8,27.29,53.25,57.7,53.25,31.98,0,57.9-25.92,57.9-57.9s-25.92-57.9-57.9-57.9Z"/>
        <g>
          <circle class="cls-2" cx="44.81" cy="59.35" r="19.63"/>
          <polygon class="cls-12" points="44.72 47.17 34.54 70.16 44.83 66.3 54.89 70.16 44.72 47.17"/>
          <text class="cls-13" transform="translate(40.3 36.8)"><tspan x="0" y="0">N</tspan></text>
        </g>
        <polygon class="cls-8" points="387.78 381.9 438.94 381.9 412.28 14.9 361.11 14.9 387.78 381.9"/>
        <polygon class="cls-8" points="294.5 381.9 325.75 381.9 271.09 14.9 239.85 14.9 294.5 381.9"/>
        <rect class="cls-8" x="11.66" y="262.71" width="305.2" height="51.16"/>
        <polygon class="cls-18" points="609.66 219.2 314.31 262.71 314.31 313.87 609.66 270.36 609.66 219.2"/>
        <g>
          <rect class="cls-18" x="31.02" y="157.63" width="71.78" height="22.89" transform="translate(-114.84 163.64) rotate(-66.7)"/>
          <text class="cls-16" transform="translate(64.47 187.07) rotate(-66.69)"><tspan x="0" y="0">高茶屋</tspan></text>
        </g>
        <polygon class="cls-20" points="290.96 113.91 363.11 105.84 355.62 15.04 276.66 15.04 290.96 113.91"/>
        <g>
          <line class="cls-5" x1="387.53" y1="10.61" x2="413.56" y2="381.9"/>
          <line class="cls-7" x1="387.53" y1="10.61" x2="413.56" y2="381.9"/>
        </g>
        <g>
          <line class="cls-5" x1="11.66" y1="289.39" x2="314.31" y2="289.39"/>
          <line class="cls-7" x1="11.66" y1="289.39" x2="314.31" y2="289.39"/>
        </g>
        <line class="cls-5" x1="314.31" y1="289.39" x2="609.66" y2="245.01"/>
        <line class="cls-7" x1="314.31" y1="289.39" x2="609.66" y2="245.01"/>
        <polygon class="cls-8" points="474.89 249.85 461.51 248.78 401.9 27.45 412.61 27.09 474.89 249.85"/>
        <text class="cls-15" transform="translate(275.42 142.08) rotate(-8.54)"><tspan x="0" y="0">近鉄道路</tspan></text>
        <g>
          <path class="cls-21" d="M203.26,303.49c-1.29,1.03-3.38.99-4.63-.08,0,0-5.81-4.96-9.76-11.91-3.19-5.61-4.59-11.52-4.59-11.52-.38-1.61.57-3.4,2.11-4,0,0,6.96-2.68,15.14-2.57,7.52.11,13.91,2.57,13.91,2.57,1.54.59,2.53,2.4,2.21,4.02,0,0-1.19,5.9-4.42,11.63-4.02,7.14-9.96,11.86-9.96,11.86Z"/>
          <path class="cls-18" d="M203.24,301.21c-1.32.99-3.4.9-4.63-.21,0,0-4.74-4.28-8.16-10.22-2.8-4.86-4.12-9.76-4.12-9.76-.43-1.59.5-3.34,2.05-3.88,0,0,6.31-2.19,13.62-1.99,6.16.17,11.38,2,11.38,2,1.56.55,2.59,2.32,2.29,3.94,0,0-.95,5.18-4.18,10.61-3.56,5.99-8.26,9.51-8.26,9.51Z"/>
          <text class="cls-17" transform="translate(191.31 291.7)"><tspan class="cls-22" x="0" y="0">1</tspan><tspan x="5.85" y="0">65</tspan></text>
        </g>
        <rect class="cls-20" x="435.8" y="81.1" width="25.26" height="29.11" transform="translate(-9.42 120.43) rotate(-15.14)"/>
        <g>
          <path class="cls-21" d="M398.09,141.88c-1.29,1.03-3.38.99-4.63-.08,0,0-5.81-4.96-9.76-11.91-3.19-5.61-4.59-11.52-4.59-11.52-.38-1.61.57-3.4,2.11-4,0,0,6.96-2.68,15.14-2.57,7.52.11,13.91,2.57,13.91,2.57,1.54.59,2.53,2.4,2.21,4.02,0,0-1.19,5.9-4.42,11.63-4.02,7.14-9.96,11.86-9.96,11.86Z"/>
          <path class="cls-18" d="M398.08,139.6c-1.32.99-3.4.9-4.63-.21,0,0-4.74-4.28-8.16-10.22-2.8-4.86-4.12-9.76-4.12-9.76-.43-1.59.5-3.34,2.05-3.88,0,0,6.31-2.19,13.62-1.99,6.16.17,11.38,2,11.38,2,1.56.55,2.59,2.32,2.29,3.94,0,0-.95,5.18-4.18,10.61-3.56,5.99-8.26,9.51-8.26,9.51Z"/>
          <text class="cls-17" transform="translate(389.37 130.09)"><tspan x="0" y="0">23</tspan></text>
        </g>
        <circle class="cls-18" cx="457.75" cy="130.09" r="6.42"/>
        <text class="cls-14" transform="translate(510.22 160.04)"><tspan x="0" y="0">キンキ住建</tspan><tspan x="6" y="14.4">サービス</tspan></text>
        <g>
          <path class="cls-1" d="M563.98,115.58c0-.55-.35-1.28-.78-1.63l-9.76-7.9-1.55-1.26-10.89-8.81c-.43-.35-1.13-.35-1.55,0l-9.32,7.54-1.55,1.26-11.33,9.17c-.43.35-.78,1.08-.78,1.63v21.6c0,.55.45,1,1,1h45.51c.55,0,1-.45,1-1v-21.6Z"/>
          <rect class="cls-19" x="533.66" y="96.16" width="39.3" height="5.98" rx="2.39" ry="2.39" transform="translate(923.98 521.74) rotate(-141.41)"/>
          <rect class="cls-19" x="507.48" y="96.16" width="39.3" height="5.98" rx="2.39" ry="2.39" transform="translate(53.25 350.42) rotate(-38.59)"/>
          <path class="cls-19" d="M551.17,96.41v-6.98c0-1.1.9-2,2-2h4.83c1.1,0,2,.9,2,2v11.83c0,1.1-.9,2-2,2"/>
          <path class="cls-8" d="M539.59,95.85l-1.25,1.01,22.61,41.31h2.03c.55,0,1-.45,1-1v-22.12c0-.3-.14-.59-.37-.78l-22.76-18.42c-.37-.3-.89-.3-1.26,0Z"/>
          <polygon class="cls-8" points="534.22 116.76 526.8 106.21 538.34 96.87 546.94 108.47 534.22 116.76"/>
          <g>
            <path class="cls-8" d="M552.67,120.86c.25.49.06,1.12-.41,1.4l-9.59,5.62c-.47.28-1.11.13-1.42-.33l-7.32-10.94c-.31-.46-.17-1.06.31-1.34l11.16-6.54c.47-.28,1.07-.1,1.32.39l5.96,11.74Z"/>
            <path class="cls-19" d="M552.67,120.86c.25.49.06,1.12-.41,1.4l-9.59,5.62c-.47.28-1.11.13-1.42-.33l-4.41-6.58s0-.01,0-.01l12.23-7.17s0,0,0,0l3.59,7.07Z"/>
            <rect x="541.65" y="125.31" width="13.86" height="3.46" rx="1.3" ry="1.3" transform="translate(11.05 294.79) rotate(-30.37)"/>
            <g>
              <path class="cls-21" d="M543.54,125.26l-6.37-11.54c-.04-.08-.11-.12-.16-.1l-.58.34s-.04.11,0,.18l6.95,11.2c.1.17.25.09.15-.09Z"/>
              <path class="cls-21" d="M544.97,119.84l-4.41-8.18c-.03-.06-.09-.08-.13-.05l-.58.34s-.05.09-.02.14l4.99,7.84c.08.12.22.03.15-.09Z"/>
              <path class="cls-21" d="M546.79,113.38l-2.21-4.06c-.03-.05-.09-.07-.14-.04l-.25.15s-.07.09-.03.14l2.46,3.92c.07.11.24.01.18-.1Z"/>
              <path class="cls-21" d="M549.31,121.02l-5.91-10.92c-.05-.09-.16-.13-.24-.09l-.72.42c-.08.05-.1.16-.04.25l6.63,10.5c.13.2.39.05.28-.16Z"/>
            </g>
            <path d="M548.35,126.65c-.89.52-1.19,1.66-.67,2.55l6.81,11.62c.52.89,1.66,1.19,2.55.67s1.19-1.66.67-2.55l-6.81-11.62c-.52-.89-1.66-1.19-2.55-.67ZM556.33,140.26c-.48.28-1.1.12-1.39-.36s-.12-1.1.36-1.39,1.1-.12,1.39.36.12,1.1-.36,1.39Z"/>
          </g>
        </g>
        <text class="cls-11" transform="translate(302.91 58.67)"><tspan x="0" y="0">イオン</tspan><tspan x="6" y="14.4">津南</tspan></text>
        <text class="cls-11" transform="translate(421.34 56.16)"><tspan x="0" y="0">ファミリー</tspan><tspan x="12" y="14.4">マート</tspan></text>
      </g>
    </g>
  </g>
</svg>